<svg xmlns="http://www.w3.org/2000/svg" width="40" height="32" viewBox="0 0 40 32">
  <g id="Group_1404" data-name="Group 1404" transform="translate(-222 -578)">
    <g id="icons8-folder" transform="translate(218 570)">
      <path id="Path_3270" data-name="Path 3270" d="M40,12H22L18,8H8a4.012,4.012,0,0,0-4,4v8H44V16A4.012,4.012,0,0,0,40,12Z" fill="#5ebfe3"/>
      <path id="Path_3271" data-name="Path 3271" d="M40,12H8a4.012,4.012,0,0,0-4,4V36a4.012,4.012,0,0,0,4,4H40a4.012,4.012,0,0,0,4-4V16A4.012,4.012,0,0,0,40,12Z" fill="#5ebfe3"/>
    </g>
    <path id="icons8-user-male" d="M11.076,11.615V10.538a2.812,2.812,0,0,0,1.008-1.589c.191-.015.49-.19.578-.88a.63.63,0,0,0-.255-.645,2.849,2.849,0,0,0,.284-1.192c0-1.307-.513-2.423-1.615-2.423A1.713,1.713,0,0,0,9.461,3a2.961,2.961,0,0,0-3.23,3.23,3.209,3.209,0,0,0,.284,1.192.63.63,0,0,0-.255.645c.088.691.388.866.578.88a2.812,2.812,0,0,0,1.008,1.589v1.077C7.307,13.23,3,12.153,3,15.922H15.922C15.922,12.153,11.615,13.23,11.076,11.615Z" transform="translate(225 586.999)" fill="#fff"/>
    <path id="icons8-user-male-2" data-name="icons8-user-male" d="M11.076,11.615V10.538a2.812,2.812,0,0,0,1.008-1.589c.191-.015.49-.19.578-.88a.63.63,0,0,0-.255-.645,2.849,2.849,0,0,0,.284-1.192c0-1.307-.513-2.423-1.615-2.423A1.713,1.713,0,0,0,9.461,3a2.961,2.961,0,0,0-3.23,3.23,3.209,3.209,0,0,0,.284,1.192.63.63,0,0,0-.255.645c.088.691.388.866.578.88a2.812,2.812,0,0,0,1.008,1.589v1.077C7.307,13.23,3,12.153,3,15.922H15.922C15.922,12.153,11.615,13.23,11.076,11.615Z" transform="translate(234 586.999)" fill="#fff"/>
    <path id="icons8-user-male-3" data-name="icons8-user-male" d="M11.076,11.615V10.538a2.812,2.812,0,0,0,1.008-1.589c.191-.015.49-.19.578-.88a.63.63,0,0,0-.255-.645,2.849,2.849,0,0,0,.284-1.192c0-1.307-.513-2.423-1.615-2.423A1.713,1.713,0,0,0,9.461,3a2.961,2.961,0,0,0-3.23,3.23,3.209,3.209,0,0,0,.284,1.192.63.63,0,0,0-.255.645c.088.691.388.866.578.88a2.812,2.812,0,0,0,1.008,1.589v1.077C7.307,13.23,3,12.153,3,15.922H15.922C15.922,12.153,11.615,13.23,11.076,11.615Z" transform="translate(242 586.999)" fill="#fff"/>
  </g>
</svg>
