<svg xmlns="http://www.w3.org/2000/svg" width="47" height="47" viewBox="0 0 47 47">
  <g id="Group_1208" data-name="Group 1208" transform="translate(-10446 440)">
    <path id="instagram" d="M16.742.039H5.613A5.558,5.558,0,0,0,.052,5.581V16.764a5.558,5.558,0,0,0,5.561,5.542H16.742A5.558,5.558,0,0,0,22.3,16.764V5.581A5.557,5.557,0,0,0,16.742.04Zm3.5,16.724a3.5,3.5,0,0,1-3.5,3.489H5.613a3.5,3.5,0,0,1-3.5-3.489V9.542h4.4a5.221,5.221,0,0,0-.5,2.236,5.282,5.282,0,0,0,10.564,0,5.212,5.212,0,0,0-.5-2.236h4.172v7.222ZM9.1,11.777a2.192,2.192,0,1,1,2.192,2.185A2.191,2.191,0,0,1,9.1,11.777ZM20.243,7.489H14.348a5.278,5.278,0,0,0-6.113,0H2.112V5.581a3.5,3.5,0,0,1,3.5-3.489H16.742a3.5,3.5,0,0,1,3.5,3.489V7.489ZM18.011,3.337H16.1a.619.619,0,0,0-.618.616v1.9a.618.618,0,0,0,.618.616h1.909a.619.619,0,0,0,.618-.616v-1.9A.618.618,0,0,0,18.011,3.337Z" transform="translate(10457.948 -428.039)" fill="#5ebfe3"/>
    <g id="Rectangle_1483" data-name="Rectangle 1483" transform="translate(10446 -440)" fill="none" stroke="#5ebfe3" stroke-width="2">
      <rect width="47" height="47" rx="23.5" stroke="none"/>
      <rect x="1" y="1" width="45" height="45" rx="22.5" fill="none"/>
    </g>
  </g>
</svg>
