<svg xmlns="http://www.w3.org/2000/svg" width="111.802" height="89.442" viewBox="0 0 111.802 89.442">
  <g id="Group_1404" data-name="Group 1404" transform="translate(-222 -578)">
    <g id="icons8-folder" transform="translate(222 578)">
      <path id="Path_3270" data-name="Path 3270" d="M104.622,19.18H54.311L43.131,8H15.18A11.214,11.214,0,0,0,4,19.18v22.36H115.8V30.36a11.214,11.214,0,0,0-11.18-11.18Z" transform="translate(-4 -8)" fill="#5ebfe3"/>
      <path id="Path_3271" data-name="Path 3271" d="M104.622,12H15.18A11.214,11.214,0,0,0,4,23.18v55.9a11.214,11.214,0,0,0,11.18,11.18h89.442a11.214,11.214,0,0,0,11.18-11.18V23.18A11.214,11.214,0,0,0,104.622,12Z" transform="translate(-4 -0.82)" fill="#5ebfe3"/>
    </g>
    <path id="icons8-user-male" d="M25.573,27.1v-3.01a7.86,7.86,0,0,0,2.817-4.441c.534-.042,1.37-.531,1.616-2.46a1.761,1.761,0,0,0-.713-1.8,7.963,7.963,0,0,0,.794-3.332c0-3.653-1.434-6.772-4.514-6.772a4.788,4.788,0,0,0-4.514-2.261,8.276,8.276,0,0,0-9.028,9.028,8.969,8.969,0,0,0,.794,3.332,1.761,1.761,0,0,0-.713,1.8c.246,1.931,1.084,2.421,1.616,2.46a7.86,7.86,0,0,0,2.817,4.441V27.1C15.038,31.618,3,28.607,3,39.142H39.118C39.118,28.607,27.079,31.618,25.573,27.1Z" transform="translate(235.77 608.514)" fill="#fff"/>
    <path id="icons8-user-male-2" data-name="icons8-user-male" d="M25.573,27.1v-3.01a7.86,7.86,0,0,0,2.817-4.441c.534-.042,1.37-.531,1.616-2.46a1.761,1.761,0,0,0-.713-1.8,7.963,7.963,0,0,0,.794-3.332c0-3.653-1.434-6.772-4.514-6.772a4.788,4.788,0,0,0-4.514-2.261,8.276,8.276,0,0,0-9.028,9.028,8.969,8.969,0,0,0,.794,3.332,1.761,1.761,0,0,0-.713,1.8c.246,1.931,1.084,2.421,1.616,2.46a7.86,7.86,0,0,0,2.817,4.441V27.1C15.038,31.618,3,28.607,3,39.142H39.118C39.118,28.607,27.079,31.618,25.573,27.1Z" transform="translate(260.926 608.514)" fill="#fff"/>
    <path id="icons8-user-male-3" data-name="icons8-user-male" d="M25.573,27.1v-3.01a7.86,7.86,0,0,0,2.817-4.441c.534-.042,1.37-.531,1.616-2.46a1.761,1.761,0,0,0-.713-1.8,7.963,7.963,0,0,0,.794-3.332c0-3.653-1.434-6.772-4.514-6.772a4.788,4.788,0,0,0-4.514-2.261,8.276,8.276,0,0,0-9.028,9.028,8.969,8.969,0,0,0,.794,3.332,1.761,1.761,0,0,0-.713,1.8c.246,1.931,1.084,2.421,1.616,2.46a7.86,7.86,0,0,0,2.817,4.441V27.1C15.038,31.618,3,28.607,3,39.142H39.118C39.118,28.607,27.079,31.618,25.573,27.1Z" transform="translate(283.286 608.514)" fill="#fff"/>
  </g>
</svg>
